<svg width="288" height="80" viewBox="0 0 288 80" fill="none" xmlns="http://www.w3.org/2000/svg">
<rect width="288" height="80" fill="white"/>
<path d="M46.4286 49.4271H30.1409V24.3573H24V55.1719H46.4286V49.4271Z" fill="#3843D0"/>
<path d="M68.2707 33.8438H62.548V45.5753C62.548 48.9869 60.6551 50.3736 58.19 50.3736C55.7028 50.3736 53.8319 48.9869 53.8319 45.5753V33.8438H48.0872V46.0816C48.0872 52.8167 52.8415 55.7221 58.19 55.7221C63.5165 55.7221 68.2707 52.8167 68.2707 46.0816V33.8438Z" fill="#3843D0"/>
<path d="M82.2738 33.2715C75.4725 33.2715 70.9164 38.0478 70.9164 44.4968C70.9164 50.9679 75.4725 55.7221 82.2738 55.7221C85.8394 55.7221 88.8328 54.2914 90.8358 51.7162L86.7419 48.2166C85.5313 49.5372 83.9465 50.3736 82.0977 50.3736C79.1263 50.3736 76.7712 48.0625 76.7712 44.4968C76.7712 40.9532 79.1483 38.6201 82.1197 38.6201C83.9906 38.6201 85.3772 39.3684 86.6758 40.7551L90.8138 37.2994C88.8549 34.7242 85.8394 33.2715 82.2738 33.2715Z" fill="#3843D0"/>
<path d="M113.521 33.8438H107.909V36.1989C106.5 34.4601 104.453 33.2715 101.526 33.2715C95.649 33.2715 91.2029 38.0918 91.2029 44.4968C91.2029 50.9018 95.649 55.7221 101.526 55.7221C104.453 55.7221 106.522 54.5336 107.909 52.8167V55.1719H113.521V33.8438ZM102.582 38.6201C105.862 38.6201 108.085 41.1292 108.085 44.4968C108.085 47.8644 105.862 50.3736 102.582 50.3736C99.2147 50.3736 97.0797 47.7544 97.0797 44.4968C97.0797 41.2393 99.2147 38.6201 102.582 38.6201Z" fill="#3843D0"/>
<path d="M120.761 47.182C118.472 47.182 116.469 49.141 116.469 51.43C116.469 53.7411 118.472 55.7221 120.761 55.7221C123.028 55.7221 125.009 53.7411 125.009 51.43C125.009 49.141 123.028 47.182 120.761 47.182Z" fill="#F96654"/>
</svg>
